<svg xmlns="http://www.w3.org/2000/svg" xmlns:xlink="http://www.w3.org/1999/xlink" width="870" height="520.139" xmlns:v="https://vecta.io/nano"><path d="M666.092 514.257c-11.138-9.412-17.904-24.28-16.13-38.754s12.764-27.78 27.018-30.854 30.504 5.435 34.834 19.359c2.383-26.846 5.129-54.818 19.402-77.68 12.924-20.701 35.309-35.514 59.569-38.164s49.803 7.359 64.933 26.507 18.835 46.985 8.238 68.969c-7.806 16.195-22.188 28.247-37.257 38.052a240.45 240.45 0 0 1-164.454 35.977z" fill="#f2f2f2"/><path d="M831.728 356.079c-20.017 16.305-38.381 34.54-54.826 54.442a394.56 394.56 0 0 0-61.752 103.194c-1.112 2.725 3.313 3.911 4.412 1.216a392.34 392.34 0 0 1 115.401-155.617c2.284-1.86-.97-5.08-3.236-3.236z" fill="#fff"/><path d="M280.067 511.699c15.298-12.927 24.591-33.348 22.154-53.228s-17.531-38.156-37.11-42.377-41.897 7.464-47.844 26.59c-3.273-36.873-7.044-75.292-26.648-106.693-17.751-28.433-48.497-48.778-81.818-52.418S40.397 293.68 19.616 319.98-6.253 384.515 8.301 414.709c10.722 22.243 30.475 38.797 51.172 52.264 66.03 42.965 147.939 60.884 225.877 49.415" fill="#f2f2f2"/><path d="M52.567 294.442c27.494 22.394 52.717 47.441 75.304 74.777 22.59 27.308 42.479 56.743 59.386 87.891 9.45 17.473 17.94 35.448 25.43 53.846 1.527 3.743-4.55 5.372-6.06 1.671a536.36 536.36 0 0 0-49.009-92.727c-19.233-29.128-41.245-56.321-65.729-81.198a538.44 538.44 0 0 0-43.766-39.815c-3.138-2.555 1.332-6.978 4.444-4.444z" fill="#fff"/><path d="M624.5 519h-365V144.5C259.5 64.822 324.322 0 404 0h76c79.677 0 144.5 64.822 144.5 144.5z" fill="#f2f2f2"/><path d="M548.5 519h-289V144.5a143.38 143.38 0 0 1 27.596-84.944l2.009-2.681c8.71-11.424 19.076-21.485 30.754-29.851l1.994-1.423a144.16 144.16 0 0 1 31.472-16.459l2.007-.742a144.02 144.02 0 0 1 31.108-7.336c.658-.09 1.333-.16 2.008-.23a146.29 146.29 0 0 1 31.105 0l2.014.231c10.607 1.284 21.038 3.744 31.1 7.335l2.009.743a143.8 143.8 0 0 1 31.106 16.216l2.006 1.405c6.546 4.673 12.695 9.878 18.384 15.564 4.562 4.56 8.813 9.422 12.724 14.551.681.88 1.343 1.773 2.005 2.677A143.38 143.38 0 0 1 548.5 144.5z" fill="#ccc"/><circle cx="525" cy="335.5" r="16" fill="#1a73e8"/><path fill="#ffb8b8" d="M594.599 507.783h-12.26l-5.833-47.288 18.095.001-.002 47.287z"/><use xlink:href="#B" fill="#2f2e41"/><path fill="#ffb8b8" d="M655.599 507.783h-12.26l-5.833-47.288 18.095.001-.002 47.287z"/><use xlink:href="#B" x="61" fill="#2f2e41"/><g fill="#ffb8b8"><path d="M533.098 338.67c-1.785-2.631-2.314-5.917-1.443-8.975s3.051-5.573 5.954-6.869l41.676-114.867 20.507 11.191-47.585 109.771c1.895 5.134-.35 10.874-5.225 13.361s-10.84.934-13.884-3.614zm116.238 21.584a10.74 10.74 0 0 1-5.232-7.433c-.558-3.13.298-6.346 2.339-8.784l-12.911-121.509 23.338 1.066 5.366 119.52c3.954 3.783 4.454 9.927 1.163 14.299s-9.332 5.593-14.063 2.84z"/><circle cx="612.106" cy="162.123" r="24.561"/></g><g fill="#1a73e8"><path d="M649.18 332.619h-74.047l.089-.576c.133-.861 13.197-86.439 3.562-114.436-2.002-5.698.616-11.989 6.069-14.583h0c13.772-6.485 40.208-14.471 62.52 4.909 6.657 5.877 10.161 14.544 9.459 23.396z"/><path d="M589.354 258.25l-33.337-6.763 15.626-37.03a14 14 0 0 1 17.043-10.021 14 14 0 0 1 10.063 17.019zm42.696 12.558l-2.004-45.941c-1.52-8.636 3.424-16.8 11.027-18.135s15.032 4.66 16.558 13.36l7.533 42.928z"/></g><path d="M646.716 327.119c11.915 45.377 13.214 103.069 10 166l-16-2-29-120-16 122-18-1c-5.377-66.03-10.613-122.715-2-160zm-18.427-146.015c-4.582 4.881-13.091 2.261-13.688-4.407a8.09 8.09 0 0 1 .01-1.556c.308-2.954 2.015-5.635 1.606-8.754a4.59 4.59 0 0 0-.84-2.149c-3.651-4.889-12.222 2.187-15.668-2.239-2.113-2.714.371-6.987-1.251-10.021-2.14-4.004-8.479-2.029-12.454-4.221-4.423-2.439-4.158-9.225-1.247-13.353 3.551-5.034 9.776-7.72 15.923-8.107s12.253 1.275 17.992 3.511c6.521 2.541 12.988 6.054 17.001 11.788 4.88 6.973 5.35 16.348 2.909 24.502-1.485 4.96-6.552 11.019-10.293 15.005z" fill="#2f2e41"/><path d="M839.982 519.643H101.688a1.19 1.19 0 1 1 0-2.381h738.294a1.19 1.19 0 1 1 0 2.381z" fill="#3f3d56"/><path d="M469 410.5H339c-3.565.019-6.472-2.851-6.5-6.415V113.915c.028-3.565 2.935-6.434 6.5-6.415h130c3.565-.019 6.472 2.851 6.5 6.415v290.169c-.028 3.565-2.935 6.434-6.5 6.415z" fill="#fff"/><g fill="#ccc"><path d="M332.5 201.39h143v2h-143zm.5 114.11h143v2H333z"/><path d="M377.5 107.5h2v304h-2zm50 0h2v304h-2z"/></g><defs ><path id="B" d="M573.582 504.28h23.644a0 0 0 0 1 0 0v14.887a0 0 0 0 1 0 0h-38.531a0 0 0 0 1 0 0h0a14.887 14.887 0 0 1 14.887-14.887z"/></defs></svg>